<svg xmlns="http://www.w3.org/2000/svg" viewBox="0 0 720 900" role="img" aria-labelledby="title desc">
  <title id="title">Profile photo placeholder</title>
  <desc id="desc">A clean placeholder image for Alex Sugiarto's professional profile photo.</desc>
  <defs>
    <linearGradient id="bg" x1="0" x2="1" y1="0" y2="1">
      <stop stop-color="#10151b"/>
      <stop offset="0.55" stop-color="#263241"/>
      <stop offset="1" stop-color="#ff3d2e"/>
    </linearGradient>
    <linearGradient id="line" x1="0" x2="1">
      <stop stop-color="#36d399"/>
      <stop offset="1" stop-color="#5ab8ff"/>
    </linearGradient>
  </defs>
  <rect width="720" height="900" fill="url(#bg)"/>
  <path d="M80 726 C220 578 500 554 642 728 L642 900 L80 900 Z" fill="#080a0d" opacity="0.78"/>
  <circle cx="360" cy="314" r="132" fill="#d9b089"/>
  <path d="M218 318 C232 148 474 132 508 314 C468 248 306 238 218 318Z" fill="#15191d"/>
  <path d="M242 638 C280 518 440 514 484 638 L514 900 L208 900 Z" fill="#f5f7fb"/>
  <path d="M290 580 L360 674 L430 580 L464 900 L256 900 Z" fill="#171d25"/>
  <rect x="48" y="48" width="624" height="804" rx="8" fill="none" stroke="rgba(255,255,255,0.22)" stroke-width="2"/>
  <path d="M54 92 H320" stroke="url(#line)" stroke-width="8" stroke-linecap="round"/>
  <path d="M54 122 H242" stroke="url(#line)" stroke-width="8" stroke-linecap="round" opacity="0.82"/>
  <text x="360" y="802" text-anchor="middle" fill="#f5f7fb" font-family="Inter, Arial, sans-serif" font-size="28" font-weight="800">Profile Photo</text>
  <text x="360" y="838" text-anchor="middle" fill="#a9b3c1" font-family="Inter, Arial, sans-serif" font-size="20">Replace this file with your image</text>
</svg>
